PathFileType	4	(X/Y/Z)	/Users/niels/Desktop/University/Third Semester/Perception and Action/Exam/Gymnastics Motion Tracking/Code for Gym Tracking/Analyzed Data/Webcam_Backflip/id10_2_trajectory_Sports2D/id10_2_trajectory_Sports2D_px_person00.trc
DataRate	CameraRate	NumFrames	NumMarkers	Units	OrigDataRate	OrigDataStartFrame	OrigNumFrames
29.714285714285715	29.714285714285715	11	22	m	29.714285714285715	0	105
Frame#	Time	Hip			RHip			RKnee			RAnkle			RBigToe			RSmallToe			RHeel			LHip			LKnee			LAnkle			LBigToe			LSmallToe			LHeel			Neck			Head			Nose			RShoulder			RElbow			RWrist			LShoulder			LElbow			LWrist		
		X1	Y1	Z1	X2	Y2	Z2	X3	Y3	Z3	X4	Y4	Z4	X5	Y5	Z5	X6	Y6	Z6	X7	Y7	Z7	X8	Y8	Z8	X9	Y9	Z9	X10	Y10	Z10	X11	Y11	Z11	X12	Y12	Z12	X13	Y13	Z13	X14	Y14	Z14	X15	Y15	Z15	X16	Y16	Z16	X17	Y17	Z17	X18	Y18	Z18	X19	Y19	Z19	X20	Y20	Z20	X21	Y21	Z21	X22	Y22	Z22
0	0.0	0.8824261694316257	-0.5891096919222686	0.0	0.8870148732897861	-0.5914043946382361	0.0	0.9237043702572542	-0.8045491745340291	0.0	0.8892938727379075	-1.0359858556223451	0.0	0.9901200528942066	-1.0680776490311503	0.0	0.9717937253619938	-1.0749487185084892	0.0	0.8640991849967578	-1.0657751559209379	0.0	0.8778329286455786	-0.5868230251399745	0.0	0.9236692254892699	-0.7976779753579781	0.0	0.8938887579105677	-1.0222297811782446	0.0	1.0015764597686434	-1.0566133181565265	0.0	0.9855177472856976	-1.047445814171138	0.0	0.8755390617937531	-1.0520145200533508	0.0	0.9602390031923658	-0.2682308608737954	0.0	1.017486579108812	-0.13300486769959038	0.0	1.0404215473549692	-0.22009088752953707	0.0	0.9487994286903321	-0.30263944328015807	0.0	0.9216911420442392	-0.4744950135864571	0.0	0.9151183664651834	-0.6393154822232372	0.0	0.9350592209333106	-0.30490377935752055	0.0	0.9034088024670746	-0.4675855257784213	0.0	0.9242959333735675	-0.6141138694272221	0.0
1	0.03365384615384615	0.8842881020487349	-0.5847613123103567	0.0	0.8855242652881149	-0.5841168489383387	0.0	0.9219127572857974	-0.8006015894592313	0.0	0.8904480239324495	-1.034999271521517	0.0	0.9906383334008304	-1.0654458027437663	0.0	0.97247283077982	-1.0737640537534572	0.0	0.8653095299270684	-1.0640097250123057	0.0	0.8843487098938946	-0.5815419446729335	0.0	0.9304887571158699	-0.7938934320969894	0.0	0.8974397351994348	-1.0171240851349042	0.0	1.0024729591100838	-1.0511628895794434	0.0	0.9875495821486013	-1.0411810612248837	0.0	0.8775051278538215	-1.048871833887142	0.0	0.9751060341970018	-0.27328400727232066	0.0	1.0391439876664457	-0.14164868322575463	0.0	1.0564883733591532	-0.2282679523481511	0.0	0.9584228319122209	-0.3037853782924064	0.0	0.9001456192927008	-0.4557492498896002	0.0	0.8607941147749925	-0.5986353922186743	0.0	0.9452829851339419	-0.3066356941071149	0.0	0.8865976832499997	-0.4532909501177991	0.0	0.8671651013351224	-0.5828353556295746	0.0
2	0.0673076923076923	0.8844050881946028	-0.5807594741044781	0.0	0.882477911607019	-0.5777969475372347	0.0	0.919582283758677	-0.7972313942651913	0.0	0.8914761739697593	-1.0341683221742206	0.0	0.9913663422688608	-1.0634792317084139	0.0	0.9732281215997747	-1.072974304180756	0.0	0.8664082124143814	-1.0625293110668823	0.0	0.8885271386147471	-0.5770904053932407	0.0	0.9375478753616894	-0.79033609890234	0.0	0.9010349740081492	-1.0126041050744479	0.0	1.0036986230531522	-1.0463057880621596	0.0	0.98943591003474	-1.0356638151230821	0.0	0.8791619123181849	-1.0456834060789941	0.0	0.989647532596854	-0.279224780506868	0.0	1.0607071158126662	-0.151391699401144	0.0	1.0727665596003029	-0.23695947627876277	0.0	0.9680111662675485	-0.3055731261841739	0.0	0.8805655234631337	-0.4369735099923436	0.0	0.8105789062366061	-0.5582571159825758	0.0	0.9568663231132394	-0.30907624479316775	0.0	0.8719816373215239	-0.4389352839343206	0.0	0.816350581874371	-0.5517899939196501	0.0
3	0.10096153846153846	0.8821620179335957	-0.5777994384714283	0.0	0.8774556039355991	-0.573479052155841	0.0	0.9170362015878878	-0.7950554280008661	0.0	0.8923129910082401	-1.033723798646339	0.0	0.9925572383583274	-1.0625891812578099	0.0	0.9741580583982812	-1.0728587978950637	0.0	0.8673406402527388	-1.0615732476708537	0.0	0.8891821920797397	-0.5744127419416101	0.0	0.9446808743600198	-0.7874952010090053	0.0	0.9044489458536276	-1.0094173187698547	0.0	1.0054532529640434	-1.0426451117978865	0.0	0.9911271130324157	-1.0316598975223756	0.0	0.8802987778400441	-1.0428866649469646	0.0	1.0034921419312985	-0.28690459945084	0.0	1.0816746853995434	-0.16307326029504068	0.0	1.0890162260806655	-0.24692445565344295	0.0	0.977565651791064	-0.3088883714059197	0.0	0.8645066941902401	-0.41924594250045466	0.0	0.7679422086481894	-0.5200530358683446	0.0	0.9701749657131884	-0.31317961005008527	0.0	0.8606978314444237	-0.4251724743907398	0.0	0.7764254424798285	-0.5226026770885251	0.0
4	0.1346153846153846	0.8780868983816078	-0.5767488841266952	0.0	0.8711659408224052	-0.5720595587160352	0.0	0.9155382094273623	-0.7945502550541004	0.0	0.8929398515650943	-1.0339612284509465	0.0	0.9943425364960522	-1.0628165900159579	0.0	0.9752673975691	-1.0735336969289142	0.0	0.8680978724702162	-1.0613501981903517	0.0	0.886363818078503	-0.5742847027747814	0.0	0.9512734242097335	-0.7860299274388974	0.0	0.9071345468416259	-1.0082339257132	0.0	1.0075320092153284	-1.0406163073128265	0.0	0.9925730638900241	-1.029744878270736	0.0	0.8807311317633294	-1.0412570984432101	0.0	1.0163062354955266	-0.29696536000316304	0.0	1.1012418162852888	-0.17699918574377674	0.0	1.104620970225032	-0.2589407342300395	0.0	0.9869726366182908	-0.3147779736999026	0.0	0.8525996769323563	-0.4049931007992408	0.0	0.7345949186095913	-0.4876069026343782	0.0	0.9843646433199379	-0.31998063569900315	0.0	0.8526738475948092	-0.4137886977949897	0.0	0.7487421521871502	-0.49846661994183405	0.0
5	0.16826923076923075	0.8732047162894219	-0.5783523297242904	0.0	0.8647535083722648	-0.5740924643199369	0.0	0.9168475505040709	-0.7958836608567017	0.0	0.8933610241104954	-1.035042621232301	0.0	0.9965813545004236	-1.0639286513194635	0.0	0.9763920223931121	-1.0749954806145696	0.0	0.86862574646532	-1.0619343164457684	0.0	0.8810356432788223	-0.5770792377456977	0.0	0.9569029791541207	-0.7865341366667227	0.0	0.9085295926844729	-1.0092227089285017	0.0	1.0093909708764146	-1.0403078472689398	0.0	0.9936767425784938	-1.0300834272294965	0.0	0.8803237492845116	-1.0413223429126068	0.0	1.0276984208119304	-0.30968739442938853	0.0	1.118365357701914	-0.1928680224851322	0.0	1.1187572951288762	-0.27328150316357025	0.0	0.9957939195011256	-0.32415715043009996	0.0	0.8447673016807243	-0.39753850056093315	0.0	0.7109054520467417	-0.4658299730573095	0.0	0.9977828706700673	-0.33016109941807786	0.0	0.8473978559133274	-0.4077286126177429	0.0	0.7318250987793293	-0.4833861151802294	0.0
6	0.20192307692307693	0.8685301064208553	-0.5829917420352325	0.0	0.8592535104675315	-0.5796338930481978	0.0	0.9224639313645916	-0.7989003567438411	0.0	0.8936137276598244	-1.0368109286312124	0.0	0.9989045513966555	-1.0655975860554185	0.0	0.9773039039441178	-1.077144158206005	0.0	0.8688089298479096	-1.0631004775068749	0.0	0.8748681771400528	-0.5827696169737517	0.0	0.9618109327430363	-0.7893134646302038	0.0	0.9084645797783337	-1.0119563424396012	0.0	1.0106368526648746	-1.0415012637897514	0.0	0.9944697632018433	-1.0324251565302265	0.0	0.8792048975109176	-1.0429945680409065	0.0	1.0370916143232136	-0.3247923508238314	0.0	1.1318103343525467	-0.2098712511995095	0.0	1.1304968303750977	-0.2893727476687755	0.0	1.003339604172126	-0.3373352639283862	0.0	0.8409575989387621	-0.3998557437966744	0.0	0.6973914665986528	-0.4597158883901006	0.0	1.008574865330382	-0.3436038867618288	0.0	0.8446299993569748	-0.41004426868400035	0.0	0.7231793915342581	-0.480582139306755	0.0
7	0.23557692307692307	0.8648748611167798	-0.590748424826018	0.0	0.8553808830027004	-0.5884817721338603	0.0	0.9328163027743493	-0.8033765577954052	0.0	0.8937863186355658	-1.038868185637435	0.0	1.0009193981937625	-1.0675298529070054	0.0	0.9778290655542757	-1.0797688442536562	0.0	0.868610290383011	-1.0643916984385329	0.0	0.8699626394018983	-0.5912379290238506	0.0	0.9668463958218002	-0.7942897283155258	0.0	0.9073798537199841	-1.015680592581341	0.0	1.0113864526453007	-1.0438696440421897	0.0	0.9953150496330023	-1.0362284931637744	0.0	0.8777923455868261	-1.045690209252115	0.0	1.0437777306392049	-0.3412907359716274	0.0	1.1403072589813679	-0.2267815677703307	0.0	1.1388709265711399	-0.30584160059525733	0.0	1.0089012724620467	-0.3536942338394203	0.0	0.8417365944267668	-0.41344598430864843	0.0	0.6959612445991471	-0.47260793962057474	0.0	1.0153132753666299	-0.3594026425025927	0.0	0.8449524112588284	-0.4225119651176884	0.0	0.7220534723065337	-0.49155513154828057	0.0
8	0.2692307692307692	0.8627828495133896	-0.6015225425440479	0.0	0.8535079422871352	-0.6004359761259183	0.0	0.9468793574347505	-0.809239164236788	0.0	0.8940006686755725	-1.0408127771753715	0.0	1.0024414405716526	-1.0695250061381596	0.0	0.9778956709840476	-1.0825741967740425	0.0	0.8681599831594461	-1.0654080328114373	0.0	0.8681683569031047	-0.602377691472897	0.0	0.9731296545389951	-0.8010424799090161	0.0	0.9061878951574623	-1.0196179539002426	0.0	1.012136165617963	-1.0471057252777576	0.0	0.9967595143816748	-1.0407913856042372	0.0	0.8764689299521063	-1.0487139556958978	0.0	1.0470428019853812	-0.3575539211019731	0.0	1.142749111947422	-0.24205895410758274	0.0	1.142898551686287	-0.3208399042319171	0.0	1.0118770228130047	-0.3717064346574301	0.0	0.8484144454869009	-0.4376634258846788	0.0	0.7099911730247073	-0.5042409248335123	0.0	1.0174645124487447	-0.3761678454718125	0.0	0.8501237113661398	-0.4446285064062722	0.0	0.7315883645018747	-0.5157781063789924	0.0
9	0.30288461538461536	0.8624273640649363	-0.6147680206692305	0.0	0.85369648991267	-0.6149492042497725	0.0	0.9626744504031451	-0.8164069038325902	0.0	0.894338237748127	-1.0423901776345021	0.0	1.0035380331500565	-1.0714609824691697	0.0	0.9775508319612983	-1.085239224104635	0.0	0.8676678451344674	-1.0660278642451626	0.0	0.8702503613516666	-0.615680869097185	0.0	0.9813908025212231	-0.8089411201147109	0.0	0.9057764925920948	-1.02314355017345	0.0	1.0133209104288579	-1.0509060271489692	0.0	0.9990845261608755	-1.0454408215406652	0.0	0.8752591360213663	-1.051563447180454	0.0	1.0462354295039324	-0.3716623376678604	0.0	1.138399390288192	-0.2541297593044335	0.0	1.1416013211182772	-0.33254400350280433	0.0	1.0117849723258119	-0.3892601312903775	0.0	0.8628126296398765	-0.4693430681503169	0.0	0.7433166210045891	-0.5492565236246351	0.0	1.0153596627286479	-0.392192864396821	0.0	0.8629650184226118	-0.4732515811323879	0.0	0.7579290304366484	-0.5497625125128048	0.0
10	0.3365384615384615	0.8635923713908209	-0.628969771915011	0.0	0.8556981553764985	-0.6304658479730492	0.0	0.9782206025418707	-0.8244089176814662	0.0	0.8947969853770872	-1.0434707770734215	0.0	1.0043280163842507	-1.0732361604962632	0.0	0.9769468168035196	-1.0874706837896215	0.0	0.8673271375794757	-1.0663261406792355	0.0	0.8755779666551589	-0.629739129198378	0.0	0.991245398919617	-0.8172240311431065	0.0	0.9065169060919751	-1.0257978545127795	0.0	1.0149274113107254	-1.0548060433657864	0.0	1.001913318239338	-1.0496136271262868	0.0	0.874014375046626	-1.0538696873797384	0.0	1.040951784061253	-0.38185994893777836	0.0	1.1271909951572145	-0.261633168017851	0.0	1.134335099761287	-0.3395513033688935	0.0	1.008317978582426	-0.4041434656471911	0.0	0.8865531795692352	-0.5028600018990631	0.0	0.7981361482311251	-0.5970615124587558	0.0	1.009703353763989	-0.40551586228359027	0.0	0.8862695690857245	-0.5028573522461158	0.0	0.8060108311196118	-0.5858526546750135	0.0
